# xmcd
#
# Track frame offsets:
#	150
#	17257
#	33241
#	44691
#	62010
#	79039
#	96249
#	113011
#	130586
#	146195
#	162554
#	175574
#	193700
#	208375
#
# Disc length: 2986
#
# Revision: 1
# Processed by: cddbd v1.5.1PL0 Copyright (c) Steve Scherf et al.
# Submitted via: CDex 1.50beta9
# Normalized: r0:TDELIM( - )
#
DISCID=be0ba80e
DTITLE=Various Artist - Hot Hits - Country - Vol 112
DYEAR=2001
DGENRE=Country
TTITLE0=Aaron Tippin - Where The Stars and Stripes and The Eagles Fly
TTITLE1=Clint Black and Lisa H Black - Easy For Me To Say
TTITLE2=Diamond Rio - That's Just That
TTITLE3=Montgomery Gentry - Cold One Comin' On
TTITLE4=Brooks and Dunn - Long Goodbye
TTITLE5=Rascal Flatts - I'm Movin' On
TTITLE6=Wild Horses - I Will Survive
TTITLE7=Daisy Dern - Getting Back To You
TTITLE8=Robin English - Girl In Love
TTITLE9=Lyle Lovett - San Antonio Girl
TTITLE10=Emerson Drive - I Should Be Sleeping
TTITLE11=Chris Cagle - I Breathe In, I Breathe Out
TTITLE12=Blake Shelton - All Over Me
TTITLE13=Lee Ann Womack - Does My Ring Burn Your Finger
EXTD=YEAR: 2001
EXTT0=
EXTT1=
EXTT2=
EXTT3=
EXTT4=
EXTT5=
EXTT6=
EXTT7=
EXTT8=
EXTT9=
EXTT10=
EXTT11=
EXTT12=
EXTT13=
PLAYORDER=
